:SAMPLES-PER-SECOND 30
:FULLY-SPECIFIED
:DEGREES
170
root  -79.6684 41.1739 12.1649 174.567 69.4884 173.448
RightUpLeg  -1.70774 -11.7595 -9.42904
RightLeg  12.3209 -2.0291 3.77358
RightFoot  -10.126 -0.129895 5.76782
RightToes  0.00048216 0.542163 -0.142577
Spine  8.27385 0.366229 6.98238
Spine1  7.75445 1.75648 -2.67624
HEad  -5.07952 5.28525 -8.12436
LeftShoulder1  7.6085 -11.4198 -44.395
LeftArm  -15.4849 17.8235 -31.3524
LeftForeArm  35.4157 -25.7216 -3.6473
LeftHand  -0.25398 0.0180481 5.50724
RightShoulder  5.05915 8.52713 36.0674
RightArm  -6.46624 -14.1371 27.5421
RightForeArm  15.5549 8.30055 6.59963
RightHand  -0.485263 -1.02193 -12.7839
LeftUpLeg  -14.0237 18.571 3.54831
LeftLeg  29.8846 7.41877 4.92723
LeftFoot  -8.00885 0.153506 -3.6492
LeftToes  1.06247e-005 4.65855e-005 -8.185e-006
171
root  -79.9625 41.1516 11.805 174.532 72.9434 173.757
RightUpLeg  -2.07554 -11.6556 -9.60611
RightLeg  11.7754 1.08046 4.07019
RightFoot  -9.95759 -0.154783 7.20943
RightToes  0.00048216 0.542163 -0.142577
Spine  8.14174 0.19324 6.56605
Spine1  7.9889 1.4104 -2.19616
HEad  -5.21379 8.89196 -9.19465
LeftShoulder1  7.53026 -11.3638 -44.0897
LeftArm  -15.8239 18.0909 -31.2545
LeftForeArm  35.1486 -27.6494 -4.07164
LeftHand  -0.25398 0.0180481 5.50724
RightShoulder  4.84785 8.18015 35.52
RightArm  -5.2421 -13.7512 25.7511
RightForeArm  18.0904 7.57925 6.72661
RightHand  -0.40241 -1.41299 -11.5661
LeftUpLeg  -10.323 13.5067 5.33496
LeftLeg  25.1572 7.29921 4.0619
LeftFoot  -9.69457 0.114042 -3.89668
LeftToes  1.06247e-005 4.65855e-005 -8.185e-006
172
root  -80.2243 41.132 11.4044 175.426 75.8322 175.029
RightUpLeg  -2.16155 -11.4281 -9.66638
RightLeg  11.0052 3.68255 4.20995
RightFoot  -9.6727 -0.198869 9.08008
RightToes  0.00048216 0.542163 -0.142577
Spine  7.87293 -0.161131 6.11643
Spine1  8.23331 0.837998 -1.74564
HEad  -5.63442 12.1837 -10.0086
LeftShoulder1  7.4283 -11.3184 -43.601
LeftArm  -15.6662 18.2775 -31.1945
LeftForeArm  35.9544 -29.1197 -4.35262
LeftHand  -0.25398 0.0180481 5.50724
RightShoulder  4.61899 7.77522 34.9896
RightArm  -4.63736 -13.2737 24.2792
RightForeArm  19.1558 7.4659 6.79165
RightHand  -0.436378 -0.843497 -11.0368
LeftUpLeg  -6.67019 10.6929 6.56729
LeftLeg  20.0004 6.74336 3.04912
LeftFoot  -10.2356 0.103669 -4.35585
LeftToes  1.06247e-005 4.65855e-005 -8.185e-006
173
root  -80.4617 41.1455 10.9643 177.017 78.0804 176.754
RightUpLeg  -2.14531 -11.1348 -9.76533
RightLeg  9.80639 5.53628 4.1313
RightFoot  -9.00591 -0.282797 10.8171
RightToes  0.00048216 0.542163 -0.142577
Spine  7.36534 -0.558525 5.25616
Spine1  8.41345 0.0737351 -1.06688
HEad  -6.78436 13.851 -10.2897
LeftShoulder1  7.31731 -11.1987 -43.2816
LeftArm  -15.2407 18.0109 -31.1281
LeftForeArm  37.0072 -29.7667 -4.44312
LeftHand  -0.25398 0.0180481 5.50724
RightShoulder  4.43148 7.45947 34.4668
RightArm  -4.6744 -13.2747 22.9805
RightForeArm  18.1985 8.34544 6.76706
RightHand  -0.42748 -0.754007 -10.6093
LeftUpLeg  -3.81368 9.93956 7.16333
LeftLeg  15.4351 6.60784 2.13252
LeftFoot  -9.69873 0.134208 -5.24981
LeftToes  1.06247e-005 4.65855e-005 -8.185e-006
174
root  -80.6981 41.1919 10.5052 177.229 79.6332 176.778
RightUpLeg  -2.32496 -10.8766 -10.1586
RightLeg  8.50631 6.51976 3.73219
RightFoot  -8.12017 -0.38743 11.7878
RightToes  0.00048216 0.542163 -0.142577
Spine  6.87975 -0.869175 3.29296
Spine1  8.36821 -0.854998 0.393918
HEad  -7.77011 15.2896 -10.6082
LeftShoulder1  7.2303 -11.0189 -43.2961
LeftArm  -14.8947 17.421 -30.9973
LeftForeArm  37.7844 -30.0786 -4.47321
LeftHand  -0.25398 0.0180481 5.50724
RightShoulder  4.30897 7.23544 34.1721
RightArm  -5.19079 -13.6103 21.8561
RightForeArm  14.9154 9.74622 6.6426
RightHand  -0.379532 -1.39613 -10.8523
LeftUpLeg  -2.34125 9.69573 7.08332
LeftLeg  12.5963 7.88639 1.069
LeftFoot  -8.88897 0.187125 -6.26936
LeftToes  1.06247e-005 4.65855e-005 -8.185e-006
175
root  -80.9609 41.2334 10.0317 174.347 80.4189 173.663
RightUpLeg  -2.77955 -10.7471 -11.0041
RightLeg  7.79961 6.9225 3.08022
RightFoot  -7.41062 -0.460596 11.9157
RightToes  0.00048216 0.542163 -0.142577
Spine  6.90411 -1.11164 0.676714
Spine1  7.97688 -1.74776 2.24722
HEad  -8.50594 16.2246 -10.7576
LeftShoulder1  7.18405 -10.9372 -43.2597
LeftArm  -14.9015 16.8704 -31.0038
LeftForeArm  38.3284 -30.6454 -4.57373
LeftHand  -0.25398 0.0180481 5.50724
RightShoulder  4.1966 7.00824 33.9705
RightArm  -6.83484 -14.3351 21.727
RightForeArm  10.0417 11.0255 6.33034
RightHand  -0.437633 -1.4822 -12.6909
LeftUpLeg  -2.11856 9.94545 6.19031
LeftLeg  11.7189 8.85139 0.154731
LeftFoot  -8.57162 0.208864 -6.51996
LeftToes  1.06247e-005 4.65855e-005 -8.185e-006
